<?xml version="1.0" encoding="UTF-8"?>
<svg id="Capa_2" data-name="Capa 2" xmlns="http://www.w3.org/2000/svg" viewBox="0 0 1197.83 1220.67">
  <defs>
    <style>
      .cls-1 {
        fill: #f6c29b;
      }

      .cls-2 {
        fill: #ea691b;
      }

      .cls-3 {
        fill: #030101;
      }

      .cls-4 {
        fill: #f8e5ce;
      }
    </style>
  </defs>
  <g id="Capa_1-2" data-name="Capa 1">
    <g>
      <path class="cls-2" d="M700.21,1212.31l-29.06,4.27-14.19,1.68-16.79,1.39-15.08.93-51.94.08-15.88-1.06-16.48-1.49-10.85-1.17c-118.79-12.78-232.97-66.63-323.33-144.35-20.73-17.84-39.84-36.76-57.34-57.5l-13.4-15.88c-23.79-28.19-43.24-59.37-60.84-92.1-37.3-69.39-60.91-144.92-71.16-222.87l-.87-8.49-2.18-20.95c-.6-5.76,1.21-12.09-.81-17.95v-57.83c1.21-5.63,1.17-11.26.98-16.98l1.8-16.89C21.02,374.13,116.27,212.23,255.08,110.83,337.49,50.63,430.72,14.94,532.07,3.12l11.14-1.08,21.55-1.53,9.41-.51,49.04.07,17,.78,18.82,1.59,13.76,1.42c84.45,8.69,176.08,43.82,247.5,89.96,25.75,16.64,49,35.12,72.17,54.76l18.28,16.83,9.47,9.56,7.7,8.27,11.87,12.44c88.95,100.84,143.31,223.7,155.79,358.13l.78,13.28,1.07,11.31.34,47.17c.04,5.66.29,10.9-.91,16.39l-1.36,25.03-1.4,13.08c-9.62,89.58-43.02,182.78-90.65,259.24-33.61,53.96-74.92,102.51-124.01,142.93-63.35,52.17-135.25,91.73-214.16,114.69l-65.08,15.39ZM801.36,1142.69c52.16-20.59,99.53-49.19,143.01-83.43,33.65-26.5,63.64-56.41,89.63-90.53,43.26-56.79,75.5-121.25,96.22-189.68,39.65-130.96,33.77-264.7-19.25-390.86-40.15-95.53-99.78-173.99-182.69-236.34-65.81-49.48-142.41-83.7-223.31-99.49-136.56-26.65-280.28-.62-397.83,73.67C133.01,236.06,27.41,441.96,42.6,648.04c8.31,112.72,48.04,221.42,115.32,312.32,34.38,46.45,76.33,86.07,123.48,119.43,90.35,63.93,197.79,99.63,308.77,101.56,71.93,1.26,143.76-12.05,211.19-38.67Z"/>
      <path class="cls-4" d="M801.36,1142.69c-67.44,26.61-139.27,39.92-211.19,38.67-110.98-1.94-218.42-37.64-308.77-101.56-47.15-33.36-89.1-72.98-123.48-119.43-67.28-90.9-107.01-199.6-115.32-312.32C27.41,441.96,133.01,236.06,307.16,126.02c117.56-74.29,261.27-100.32,397.83-73.67,80.89,15.79,157.5,50.01,223.31,99.49,82.91,62.34,142.54,140.81,182.69,236.34,53.02,126.16,58.9,259.9,19.25,390.86-20.72,68.43-52.96,132.9-96.22,189.68-25.99,34.12-55.98,64.03-89.63,90.53-43.48,34.24-90.85,62.85-143.01,83.43ZM633.57,124.59l-34.55-55.09-34.63,55.14,69.19-.05ZM179.61,546.55c11.48-114.71,69.73-219.93,160.59-290.6,62.47-48.59,137.15-77.92,215.84-84.39l-.86-27.75c-101.74,8.18-196.61,51.6-269.37,122.91-48.27,47.31-86.11,104.18-108.71,168.12-12.91,36.35-21.5,73.25-24.72,111.63l27.24.08ZM1018.07,546.56l26.84-.08c-12.01-126-74.97-237.99-174.5-315.75-65.61-50.97-144.55-79.63-226.91-86.84l-.98,27.69c83.77,6.54,162.19,38.99,226.29,92.92,44.64,37.26,81.08,83.52,107.33,135.42,22.45,46.62,37.45,95.51,41.93,146.65ZM308.39,593.83l-7.17.67c-2.47.23-4.56,4.65-4.59,6.99-.03,2.74,1.78,7.25,5.17,7.69,4.33.57,9.6.25,13.14-.33,15.99,26.02,41.61,44.67,71.79,51.65,2.88.67,4.51,2.92,5.32,5.74,13.26,46.14,39,87.21,75.36,118.4l14.69,12.6c11.77,59.05,63.35,91.01,122.07,89.15,54.68-1.49,101.04-34.67,112.06-89.35,43.69-35.61,73.38-75.9,89.61-130.34.52-3.25,2.59-5.49,5.81-6.25,30.14-7.09,56.15-26.27,71.2-53.19,3.59,2.98,10.22,3.06,14.75,1.19,3.99-1.65,4.48-7.22,3-10.33-1.91-4-6.34-4.54-11-4.21,12.03-33.19,9.87-72.85-13.97-100.1-18.64-21.31-47.14-28.66-73.92-16.77l-11.85-44.68c-16.35-55.44-54.92-100.03-107.63-125.06l11.33-11.99c.44-.47,1.26-2.25.8-2.68l-1.46-1.4-37.69.75c-3.09.06-5.42.28-8.19-.82l11.59-26.21c-.1-.95-.31-2.61-.99-2.7l-2.36-.32-53.53,20.95,3.05-33.52-64.46,47.78c-12.08,4.86-23.2,9.38-34.65,15.33-45.04,24.26-78.5,63.45-94.96,111.98-5.84,17.21-9.59,34.11-14.21,52.58-22.7-9.98-47.15-6.61-65.7,8.62-30.81,25.3-35.86,71.99-22.39,108.17ZM345.8,331.96c0-3.08,1.85-6.9,5.57-6.9l63.83-.05c6.3,0,10.61-4.64,10.36-10.5-.22-5.23-4.42-9.57-10.39-9.56l-78.94.1c-6.95,0-10.72,6.88-10.7,12.98l.27,80.6c.02,5.31,5.59,8.39,9.92,8.36,3.61-.03,9.9-2.36,9.91-7.44l.17-67.57ZM852.28,399.41c.02,5.58,6.74,7.79,10.36,7.65,3.88-.15,9.59-2.87,9.63-8.18l.52-82.56c.04-7.06-6.24-11.39-12.57-11.39l-78,.06c-6.06,0-10.13,5.04-9.92,10.47.18,4.66,4.34,9.53,9.91,9.53l63.95.02c3.44,0,5.91,2.62,5.92,6.05l.21,68.33ZM129.45,631.4l.04-69.13-55.02,34.8,54.98,34.33ZM1122.92,597.09l-55.03-34.86-.07,69.36,55.1-34.49ZM238.06,594.59c-2.93-.76-7.9-.84-10.54-.25-4.66,1.04-5.6,6.27-4.87,9.79.92,4.43,4.98,5.52,9.57,5.56s8.45-.64,10.08-5.06c1.11-3.02.7-8.74-4.24-10.03ZM273.48,594.27c-2.67-.38-6.82-.42-9.01-.06-4.88.81-6.34,6.3-5.53,9.53,1.28,5.11,5.49,5.86,10.24,5.9s8.69-.93,9.98-5.46c1.03-3.59-.34-9.14-5.67-9.91ZM934.01,594.63c-2.63-.68-7.18-.83-9.71-.51-5.19.65-7.02,5.97-5.91,10.08s5.19,5.52,9.82,5.48,8.45-.83,10.11-5.02c1.24-3.13.74-8.72-4.31-10.03ZM969.84,594.38c-2.73-.53-7.47-.57-10.15.06-4.7,1.11-5.42,6.59-4.51,9.92,1.24,4.54,5.42,5.25,10,5.23,4.84-.02,9.1-1.2,10.1-6.18.64-3.21-.79-8.12-5.44-9.03ZM241.02,822.05c-15.67-26-27.41-50.56-37.3-77.66-12.43-33.07-20.37-66.89-23.75-102.22l-27.78.23c1.46,20.89,5.04,41.09,9.74,61.95,11.31,46.67,29.37,90.46,54.3,131.87l24.77-14.17ZM981.25,836.21c23.14-38.75,39.93-78.27,51.31-120.74,6.35-24.44,10.83-48.38,12.77-73.07l-27.28-.19c-3.18,35.86-11.6,69.93-23.91,103.69-9.97,26.71-21.77,51.34-36.71,76.37l23.81,13.94ZM415.36,805.52h-64.18c-3.47.01-5.35-3.47-5.35-6.47l-.09-67.8c0-5.36-5.84-8.22-10.07-8.23s-9.89,3.23-9.9,8.41l-.13,84.37c0,5.35,5.73,9.77,10.76,9.76l80.36-.05c5.8,0,9.27-6.06,8.85-10.55-.46-5.02-4.33-9.44-10.25-9.44ZM782.05,825.53l78.84.03c8.51,0,12.36-6.57,12.28-14.62l-.85-78.89c-.06-5.6-4.82-8.9-9.7-9.06-3.83-.13-10.38,2.78-10.39,8.09l-.15,68.94c0,2.82-3.06,5.48-5.82,5.49l-64.03.09c-5.88,0-9.82,4.64-9.9,9.9-.06,4.61,3.46,10.04,9.71,10.04ZM395.7,1028.97l-41.9-41.55-7.21-1.57-11.03-11.19c22.52-31.65,18.15-74.21-10.75-100.61-18.72-17.1-44.06-24.14-70.17-17.82-21.52,5.22-41.36,20.69-51.38,42.96-14.47,32.14-4.57,70.19,22.94,91.47,27.81,21.51,66.52,21.18,94.65-.69l12.39,11.49c-2.28,5.54.75,8.35,4.01,11.55l36.77,36.09c5.64,5.54,14.76,3.71,19.81-1.01,4.49-4.2,7.44-13.6,1.86-19.13ZM921.73,1015.24c4-.03,5.8-3.38,6.07-6.33l.92-10.08,17.62-6.72,8.84,7.03c2.65,2.1,7.11.16,9.13-1.84l12.13-12.04c2.9-2.88,2.9-6.58.17-9.76l-6-6.99,6.41-16.08,10.67-1.06c3.02-.3,5.83-3.04,5.8-6.23l-.15-19.25c-.03-3.43-3.03-5.38-6.17-5.79l-10.25-1.36-6.43-16.14,6.32-7.84c2.79-3.46,2.62-6.89-.49-9.92l-12.66-12.35c-2.5-2.44-6.86-2.88-9.62-.69l-8.18,6.47-16.83-6.8-1.05-9.41c-.46-4.11-2.18-7.34-6.87-7.38l-16.91-.13c-4.84-.04-7.28,3.28-7.61,7.69l-.68,9.03-17.3,6.95-7.14-5.55c-2.84-2.2-7.21-3.58-10.23-.67l-11.81,11.43c-2.01,1.94-5.02,6.24-2.88,9.09l7.62,10.15-6.41,16.25-9.51.92c-4.36.42-7.4,2.47-7.4,7.18l.03,18.04c0,3.8,3,6.14,6.46,6.43l10.26.86,6.43,16.05-6.6,7.92c-1.97,2.36-2.11,5.94.16,8.22l13.01,13.06c2.97,2.98,7.25,2.91,10.52.33l7.64-6.03,17.18,6.95.73,10c.25,3.46,2.69,6.55,6.42,6.52l18.64-.14ZM607.19,1068.34v-143.18c.01-5.55-5.27-8.41-9.35-7.88-5.16.66-7.17,4.48-7.17,9.75l.06,140.9c0,4.86,3.88,8.02,7.96,8.17,3.65.13,8.5-2.19,8.5-7.76ZM568.73,1045.3l-.05-89.86c0-4.81-5.12-7.48-8.85-7.16s-7.57,3.39-7.58,7.84l-.03,89.79c0,4.68,4.58,7.6,8.29,7.5,3.91-.11,8.21-2.87,8.21-8.11ZM644.64,1046.14l-.05-90.46c0-4.3-5.58-6.92-8.74-6.53-2.69.33-7.36,3.27-7.37,7.12l-.06,88.61c0,4.91,3.12,7.95,7.38,8.38,3.65.37,8.85-1.85,8.85-7.11ZM479.44,1040.45l-.26-79.37c-.02-4.71-6-6.79-9.23-6.13-4.49.92-6.65,4.15-6.64,9.1l.23,77.6c.01,4.1,5.23,6.21,8.04,6.08,3.49-.17,7.89-2.3,7.87-7.26ZM733.19,1041.39v-80.32c-.01-4.59-6.24-6.72-9.28-6.16-4.48.83-6.78,4.29-6.78,9.14l.08,76.9c0,4.22,4.32,6.51,7.6,6.71,2.97.18,8.38-1.51,8.38-6.27ZM509.13,1028.47v-51.41c0-4.37-4.07-6.89-7.55-7.29-3.07-.35-8.44,2.06-8.43,6.29l.04,53.97c0,4.02,5.41,6.18,8.37,5.92,3.43-.3,7.57-2.55,7.57-7.48ZM703.61,1029.23l-.03-49.79c0-4.22-5.58-6.42-8.7-6.07s-7.23,2.98-7.22,6.83l.15,50.2c.01,4.02,5.84,5.68,8.68,5.36,2.54-.28,7.12-2.61,7.11-6.52ZM538.8,1023.45l-.05-39.24c0-4.19-4.79-6.68-8.07-6.74s-7.99,2.55-7.98,6.74l.12,40.39c.01,4.1,5.61,6.2,8.55,5.87,3.15-.35,7.43-2.71,7.43-7.01ZM449.59,1015.09l.09-28.92c.01-4.18-4.58-6.86-8.01-6.91s-8.02,2.77-8.01,6.88l.07,28.53c0,4.15,4.77,6.47,7.98,6.51,2.89.04,7.87-1.89,7.88-6.11ZM763.09,1014.48v-28.43c0-4.57-4.73-7.09-8.38-6.96-3.3.11-7.68,2.79-7.65,6.91l.18,28.98c.03,4.33,5.09,6.4,8.45,6.25,2.87-.13,7.41-2.41,7.41-6.75ZM674.1,1022.51v-34.46c0-4.72-4.68-7.71-8.41-7.58-4.58.16-7.87,3.61-7.87,8.52l.06,32.05c0,5.31,2.48,9.14,7.97,9.47,3.46.21,8.26-2.77,8.25-8ZM632.94,1101.99l-68.5.12,34.33,54.31,34.17-54.43Z"/>
      <g>
        <path class="cls-2" d="M179.61,546.55l-27.24-.08c3.22-38.38,11.81-75.28,24.72-111.63,22.6-63.95,60.43-120.81,108.71-168.12,72.76-71.31,167.63-114.73,269.37-122.91l.86,27.75c-78.69,6.48-153.36,35.8-215.84,84.39-90.85,70.66-149.11,175.89-160.59,290.6Z"/>
        <path class="cls-2" d="M1018.07,546.56c-4.48-51.14-19.48-100.03-41.93-146.65-26.24-51.9-62.69-98.16-107.33-135.42-64.09-53.93-142.51-86.37-226.29-92.92l.98-27.69c82.36,7.22,161.3,35.87,226.91,86.84,99.53,77.75,162.49,189.75,174.5,315.75l-26.84.08Z"/>
      </g>
      <path class="cls-2" d="M241.02,822.05l-24.77,14.17c-24.93-41.41-42.99-85.21-54.3-131.87-4.7-20.86-8.29-41.06-9.74-61.95l27.78-.23c3.37,35.33,11.32,69.15,23.75,102.22,9.89,27.1,21.63,51.66,37.3,77.66Z"/>
      <path class="cls-2" d="M981.25,836.21l-23.81-13.94c14.94-25.03,26.73-49.66,36.71-76.37,12.31-33.76,20.73-67.83,23.91-103.69l27.28.19c-1.95,24.69-6.42,48.63-12.77,73.07-11.38,42.46-28.18,81.99-51.31,120.74Z"/>
      <path class="cls-2" d="M415.36,805.52c5.92,0,9.79,4.42,10.25,9.44.41,4.49-3.05,10.55-8.85,10.55l-80.36.05c-5.03,0-10.77-4.41-10.76-9.76l.13-84.37c0-5.18,5.87-8.43,9.9-8.41s10.06,2.87,10.07,8.23l.09,67.8c0,3,1.88,6.48,5.35,6.48h64.18Z"/>
      <path class="cls-2" d="M782.05,825.53c-6.25,0-9.78-5.43-9.71-10.04.07-5.25,4.02-9.89,9.9-9.9l64.03-.09c2.76,0,5.81-2.67,5.82-5.49l.15-68.94c.01-5.31,6.57-8.22,10.39-8.09,4.88.16,9.64,3.46,9.7,9.06l.85,78.89c.09,8.05-3.77,14.62-12.28,14.62l-78.84-.03Z"/>
      <path class="cls-2" d="M345.8,331.96l-.17,67.57c-.01,5.09-6.3,7.41-9.91,7.44-4.33.04-9.9-3.05-9.92-8.36l-.27-80.6c-.02-6.1,3.75-12.97,10.7-12.98l78.94-.1c5.96,0,10.17,4.33,10.39,9.56.25,5.86-4.06,10.5-10.36,10.5l-63.83.05c-3.72,0-5.56,3.82-5.57,6.9Z"/>
      <path class="cls-2" d="M852.28,399.41l-.21-68.33c-.01-3.44-2.48-6.05-5.92-6.05l-63.95-.02c-5.57,0-9.73-4.88-9.91-9.53-.21-5.43,3.87-10.47,9.92-10.47l78-.06c6.33,0,12.61,4.33,12.57,11.39l-.52,82.56c-.03,5.31-5.75,8.02-9.63,8.18-3.62.14-10.35-2.07-10.36-7.65Z"/>
      <polygon class="cls-2" points="633.57 124.59 564.39 124.64 599.02 69.5 633.57 124.59"/>
      <polygon class="cls-2" points="1122.92 597.09 1067.82 631.59 1067.89 562.23 1122.92 597.09"/>
      <polygon class="cls-2" points="129.45 631.4 74.47 597.06 129.49 562.26 129.45 631.4"/>
      <polygon class="cls-2" points="632.94 1101.99 598.78 1156.42 564.45 1102.11 632.94 1101.99"/>
      <g>
        <path class="cls-2" d="M607.19,1068.34c0,5.57-4.85,7.89-8.5,7.76-4.08-.15-7.96-3.31-7.96-8.17l-.06-140.9c0-5.27,2.01-9.08,7.17-9.75,4.07-.52,9.36,2.34,9.36,7.88v143.18Z"/>
        <path class="cls-2" d="M568.73,1045.3c0,5.24-4.3,8-8.21,8.11-3.7.1-8.29-2.83-8.29-7.5l.03-89.79c0-4.45,4.03-7.53,7.58-7.84,3.73-.33,8.84,2.35,8.85,7.16l.05,89.86Z"/>
        <path class="cls-2" d="M644.64,1046.14c0,5.26-5.19,7.48-8.85,7.11-4.26-.43-7.38-3.47-7.38-8.38l.06-88.61c0-3.84,4.67-6.79,7.37-7.12,3.16-.38,8.74,2.23,8.74,6.53l.05,90.46Z"/>
        <path class="cls-2" d="M733.19,1041.39c0,4.77-5.41,6.45-8.38,6.27-3.28-.2-7.6-2.49-7.6-6.71l-.08-76.9c0-4.85,2.3-8.3,6.78-9.14,3.04-.57,9.27,1.57,9.27,6.16v80.32Z"/>
        <path class="cls-2" d="M479.44,1040.45c.02,4.96-4.39,7.09-7.87,7.26-2.8.14-8.02-1.98-8.04-6.08l-.23-77.6c-.01-4.95,2.14-8.18,6.64-9.1,3.23-.66,9.22,1.42,9.23,6.13l.26,79.37Z"/>
        <path class="cls-2" d="M509.13,1028.47c0,4.93-4.13,7.19-7.57,7.48-2.96.26-8.37-1.91-8.37-5.92l-.04-53.97c0-4.23,5.36-6.64,8.43-6.29,3.48.4,7.55,2.92,7.55,7.29v51.41Z"/>
        <path class="cls-2" d="M703.61,1029.23c0,3.91-4.57,6.24-7.11,6.52-2.84.31-8.67-1.35-8.68-5.36l-.15-50.2c-.01-3.85,4.22-6.49,7.22-6.83s8.7,1.85,8.7,6.07l.03,49.79Z"/>
        <path class="cls-2" d="M538.8,1023.45c0,4.3-4.27,6.66-7.43,7.01-2.95.33-8.54-1.77-8.55-5.87l-.12-40.39c-.01-4.18,4.65-6.79,7.98-6.74s8.07,2.55,8.07,6.74l.05,39.24Z"/>
        <path class="cls-2" d="M674.1,1022.51c0,5.23-4.8,8.21-8.25,8-5.49-.33-7.96-4.16-7.97-9.47l-.06-32.05c0-4.9,3.28-8.36,7.87-8.52,3.73-.13,8.41,2.87,8.41,7.58v34.46Z"/>
        <path class="cls-2" d="M449.59,1015.09c-.01,4.22-4.98,6.15-7.88,6.11-3.22-.05-7.97-2.37-7.98-6.51l-.07-28.53c0-4.12,4.65-6.94,8.01-6.88s8.02,2.73,8.01,6.91l-.09,28.92Z"/>
        <path class="cls-2" d="M763.09,1014.48c0,4.34-4.54,6.62-7.41,6.75-3.36.16-8.42-1.92-8.45-6.25l-.18-28.98c-.03-4.12,4.36-6.8,7.65-6.91,3.65-.12,8.38,2.39,8.38,6.96v28.43Z"/>
      </g>
      <path class="cls-2" d="M308.39,593.83c4.9-.46,8.24,3.1,9.63,7.55l.13,4.32-3.21,3.16c-3.54.58-8.81.9-13.14.33-3.39-.45-5.2-4.95-5.17-7.69.02-2.34,2.12-6.76,4.59-6.99l7.17-.67Z"/>
      <path class="cls-2" d="M934.01,594.63c5.04,1.31,5.55,6.89,4.31,10.03-1.66,4.19-5.69,4.98-10.11,5.02s-8.68-1.25-9.82-5.48.72-9.43,5.91-10.08c2.53-.32,7.08-.17,9.71.51Z"/>
      <path class="cls-2" d="M238.06,594.59c4.94,1.29,5.35,7.01,4.24,10.03-1.63,4.42-5.59,5.09-10.08,5.06s-8.64-1.13-9.57-5.56c-.73-3.51.21-8.75,4.87-9.79,2.63-.59,7.61-.51,10.54.25Z"/>
      <path class="cls-2" d="M273.48,594.27c5.33.77,6.7,6.32,5.67,9.91-1.29,4.53-5.21,5.49-9.98,5.46s-8.96-.78-10.24-5.9c-.81-3.23.65-8.72,5.53-9.53,2.19-.36,6.34-.32,9.01.06Z"/>
      <path class="cls-2" d="M889.6,593.92c4.67-.33,9.09.21,11,4.21,1.49,3.11.99,8.68-3,10.33-4.53,1.87-11.16,1.8-14.75-1.19-1.94-1.61-2.48-6.78-1.26-9.13,1.33-2.57,4.72-3.98,8-4.22Z"/>
      <path class="cls-2" d="M969.84,594.38c4.66.91,6.08,5.83,5.44,9.03-1,4.99-5.26,6.17-10.1,6.18-4.58.01-8.77-.7-10-5.23-.91-3.33-.19-8.81,4.51-9.92,2.68-.63,7.42-.6,10.15-.06Z"/>
      <path class="cls-4" d="M851.35,594.79c-1.14.04-3.28,1.43-4.12,2.09s-1.03,3.37-.73,4.82c-8.21,9.62-17.49,17.43-29.46,22.46l-2.76-.57c-.59-.12-.81-1.89-.75-2.6,2.88-33.24.57-65.76-4.43-98.93,3.17-7.85,10.65-12.3,19.17-12.24,9.54.07,17.7,5.32,23.17,13.02,14.34,20.15,10.51,50.35-.08,71.95Z"/>
      <g>
        <path class="cls-2" d="M921.73,1015.24l-18.64.14c-3.73.03-6.17-3.06-6.42-6.52l-.73-10-17.18-6.95-7.64,6.03c-3.27,2.58-7.55,2.65-10.52-.33l-13.01-13.06c-2.27-2.28-2.13-5.86-.16-8.22l6.6-7.92-6.43-16.05-10.26-.86c-3.46-.29-6.46-2.63-6.46-6.43l-.03-18.04c0-4.71,3.04-6.76,7.4-7.18l9.51-.92,6.41-16.25-7.62-10.15c-2.14-2.85.87-7.14,2.88-9.09l11.81-11.43c3.01-2.92,7.39-1.54,10.23.67l7.14,5.55,17.3-6.95.68-9.03c.33-4.41,2.77-7.73,7.61-7.69l16.91.13c4.69.04,6.41,3.26,6.87,7.38l1.05,9.41,16.83,6.8,8.18-6.47c2.76-2.18,7.11-1.75,9.62.69l12.66,12.35c3.11,3.03,3.27,6.46.49,9.92l-6.32,7.84,6.43,16.14,10.25,1.36c3.13.42,6.14,2.36,6.17,5.79l.15,19.25c.03,3.19-2.78,5.93-5.8,6.23l-10.67,1.06-6.41,16.08,6,6.99c2.73,3.18,2.73,6.88-.17,9.76l-12.13,12.04c-2.02,2-6.48,3.94-9.13,1.84l-8.84-7.03-17.62,6.72-.92,10.08c-.27,2.95-2.07,6.3-6.07,6.33ZM947.03,935.36c0-19.22-15.58-34.8-34.8-34.8s-34.8,15.58-34.8,34.8,15.58,34.8,34.8,34.8,34.8-15.58,34.8-34.8Z"/>
        <circle class="cls-4" cx="912.23" cy="935.36" r="34.8"/>
      </g>
      <g>
        <path class="cls-3" d="M889.6,593.92c-3.28.23-6.67,1.65-8,4.22-1.22,2.35-.68,7.51,1.26,9.13-15.05,26.93-41.06,46.1-71.2,53.19-3.23.76-5.29,2.99-5.81,6.25-16.23,54.44-45.93,94.73-89.61,130.34-11.02,54.68-57.38,87.86-112.06,89.35-58.72,1.86-110.3-30.1-122.07-89.15l-14.69-12.6c-36.36-31.19-62.1-72.26-75.36-118.4-.81-2.82-2.44-5.07-5.32-5.74-30.18-6.98-55.8-25.63-71.79-51.65l3.21-3.16,3.39,3.45h9.6s11.15-.03,11.15-.03l5.79-2.69c1.91,2.65,5.96,2.88,9.59,1.56,6.18,7.47,23.58,18.17,25.79,15.89.46-.47.99-2.14.95-2.93l-.8-14.51c2.73-.76,4.13-2.95,3.96-5.94-.11-1.86-2.15-4.06-4.33-4.19-.91-24.8,2.41-49.32,5.42-74.54-3.18-9.85-16.02-14.08-25.66-11.08-7.59,2.36-13.3,6.96-17.55,13.66-12.91,20.36-9.61,49.03,1.98,70.27l-17.23-.48-8.79.46c-2.09.11-3.45,4.82-3.39,6.77-1.38-4.45-4.73-8.01-9.63-7.55-13.46-36.18-8.42-82.87,22.39-108.17,18.55-15.23,43-18.6,65.7-8.62,4.62-18.47,8.38-35.37,14.21-52.58,16.46-48.54,49.92-87.72,94.96-111.98,11.45-5.95,22.57-10.48,34.65-15.33l64.46-47.78-3.05,33.52,53.53-20.95,2.36.32c.67.09.89,1.75.99,2.7l-11.59,26.21c2.77,1.1,5.1.88,8.19.82l37.69-.75,1.46,1.4c.46.44-.36,2.21-.8,2.68l-11.33,11.99c52.71,25.03,91.28,69.61,107.63,125.06l11.85,44.68c26.79-11.89,55.28-4.54,73.92,16.77,23.84,27.25,26,66.92,13.97,100.1ZM687.09,447.26c0-48.65-39.44-88.1-88.1-88.1s-88.1,39.44-88.1,88.1,39.44,88.1,88.1,88.1,88.1-39.44,88.1-88.1ZM846.49,601.7c.41,2.01,2.8,6.92,5.11,7l13.56.46c4.5.15,9.5-2.35,8.77-8.27-.35-2.83-4.34-6.75-7.39-6.64l-15.18.54c10.59-21.6,14.42-51.8.08-71.95-5.48-7.7-13.63-12.95-23.17-13.02-8.51-.06-16,4.39-19.17,12.24,4.99,33.17,7.3,65.69,4.43,98.93-.06.71.16,2.48.75,2.6l2.76.57c11.98-5.02,21.25-12.84,29.46-22.46ZM418.1,594.11l-3.94,1.84-2.01-1.04c-3.54-1.83-8.05-1.07-9.88,2.69s-.97,8.96,3.13,10.96c1.95.95,5.89.2,8.25.33l8.32.48c9.9,30.96,31.38,54.67,63.33,64.55,9.43,2.91,18.33,6.76,25.88,13.05l13.98,11.65c-24.55,26.8-34.58,62.33-27.92,97.12.53,2.76,1.56,5.18,3.2,7.77,60.71-29.72,136.19-30,198.05.44,10.72-37.65.7-77.03-26.01-105.36l14.62-11.7c6.89-5.5,14.33-9.65,23-12.09,32.09-9.03,56.19-33.85,65.79-65.27l9.96-.43c3.48-.15,7.08.63,9.43-2.42,1.84-2.39,2.34-6.74.37-9.58s-5.91-2.55-9.74-2.67l-5.64-.18c1.86-15.93.5-31.5-7.91-45.36-12.2-20.09-36.77-30.58-58.66-20.12l-85.71,40.97c-7.58,3.62-14.54,6.98-22.45,7.98-4.64.58-10.05.32-14.72-.37-6.69-.98-12.8-3.64-19.34-6.78l-87.64-41.92c-20.61-9.86-43.9-.68-56.41,17.65-9.74,14.26-11.68,31.22-9.32,47.79ZM690.61,823.45c.72-1.18,1.03-4.37.35-5.38-.57-.84-2-1.92-3.44-2.58-55.52-25.45-124.37-25.23-179.59,1.23-1.48.79-1.25,5.43-.36,6.92,12.22,20.43,31.07,35.04,54.09,41.98,47.24,14.25,102.16,2.15,128.96-42.17Z"/>
        <path class="cls-4" d="M590.82,577.36l-.43,16.86-68.11.36-3.37,1.3-3.64-1.24-55.6-21.11c-2.99-1.14-6.87,1.78-7.81,3.88-1.2,2.69-.73,8.04,2.31,9.52l7.6,3.69c.99.48,2.52,2.42,2.84,3.63l-10.46.16c-2.43.04-4.9,4.1-5.06,6.22-.2,2.57.86,6.86,3.57,7.9,4.53,1.74,10.88,1.65,15.07-.65,5.38,14.03,18.06,24.19,31.16,27.36,16.28,3.94,30.28-1.15,42.23-11.36,7.82-.56,14.25-5,13.52-10.32-.22-1.61-2.24-3.91-3.55-4.93l39.51.15.37,28.29-.79,2.68c-10.29-5.88-23.28-5.19-33.91.31-17.04,8.81-24.38,29.99-15,46.75,5.64,3.06,12.58,4.13,19.25,4.27-8.41-10.87-12.01-20.93-4.54-31.48,7.69-10.88,24.37-11.13,35.02-1.88l-.57,23.6c-3.37-9.69-14.96-20.72-22-13.53-1.93,1.97-2.9,7.06-.44,9.35l14.06,13.08c2.5,2.33,7.12.76,9.29-1.44l7.26,89.35,1.56-27.18,4.22-54.96c.95-12.35,1.94-23.99.53-35.73,5.87-6.88,14.86-10.22,23.89-8.87,7.3,1.09,12.58,6.06,15.21,11.66,3.32,7.07,2.59,14.64-1.84,20.94l-4.99,7.1c6.59.1,13.69-.46,19.37-3.81,9.34-16.47,2.89-36.7-13.34-46.41-11.15-6.68-25.1-7.04-36.53-.36l-1.08-10.43.17-21.39,40.8.38c-2.37,2.11-4.08,5.94-2.43,8.89,2.63,4.7,8.4,5.1,12.94,5.86,11.85,10.68,26.14,15.38,42.94,11.12,12.33-3.13,24.88-13.3,30.23-26.97,2.05,1.92,14.93,3.89,18.11-3.32,1.35-3.05.54-9.45-3.91-9.81l-10.23-.82c.58-4.84,6.6-3.68,10.66-8.09,2.87-3.12,2.35-7.6.11-10.14-2.51-2.85-5.77-2.65-9.39-1.28l-58.12,22.04-1.65-2-69.86-.24-.44-16.57c7.91-1,14.87-4.36,22.45-7.98l85.71-40.97c21.89-10.46,46.46.03,58.66,20.12,8.42,13.86,9.78,29.44,7.91,45.36-2.15-.07-5.74-.07-7.95.31-4.59.79-5.9,5.78-4.96,9.59.8,3.24,4.52,5.56,8.51,5.39-9.6,31.42-33.7,56.23-65.79,65.27-8.67,2.44-16.11,6.59-23,12.09l-14.62,11.7c26.71,28.33,36.73,67.71,26.01,105.36-61.87-30.44-137.35-30.16-198.05-.44-1.64-2.58-2.67-5-3.2-7.77-6.66-34.8,3.36-70.32,27.92-97.12l-13.98-11.65c-7.54-6.29-16.45-10.13-25.88-13.05-31.95-9.88-53.43-33.58-63.33-64.55,3.97.23,7.72-1.09,8.8-5.28.91-3.5-.15-9.33-5.06-9.58l-7.61-.4c-2.35-16.57-.42-33.52,9.32-47.79,12.51-18.32,35.8-27.5,56.41-17.65l87.64,41.92c6.55,3.13,12.66,5.79,19.34,6.78ZM614.69,690.75c9.95-7.2,21.74-15.87,14.73-23.26-1.83-1.93-5.84-2.87-8.88-1.11-10.18,5.89-17.24,18.99-12.55,23.49,1.23,1.18,5.37,1.85,6.69.89Z"/>
        <path class="cls-2" d="M687.09,447.26c0,48.65-39.44,88.1-88.1,88.1s-88.1-39.44-88.1-88.1,39.44-88.1,88.1-88.1,88.1,39.44,88.1,88.1ZM657.07,447.34c0-32.06-25.99-58.05-58.05-58.05s-58.05,25.99-58.05,58.05,25.99,58.05,58.05,58.05,58.05-25.99,58.05-58.05Z"/>
        <path class="cls-4" d="M690.61,823.45c-26.79,44.32-81.71,56.42-128.96,42.17-23.03-6.94-41.87-21.55-54.09-41.98-.89-1.48-1.12-6.12.36-6.92,55.21-26.47,124.07-26.69,179.59-1.23,1.44.66,2.87,1.74,3.44,2.58.68,1.01.37,4.2-.35,5.38Z"/>
        <path class="cls-4" d="M383.24,596.33l.37,10.12.8,14.51c.04.78-.49,2.46-.95,2.93-2.21,2.27-19.61-8.43-25.79-15.89l-6.27-7.58-3.97-5.77c-11.58-21.23-14.88-49.9-1.98-70.27,4.25-6.7,9.96-11.3,17.55-13.66,9.64-2.99,22.48,1.23,25.66,11.08-3.01,25.21-6.33,49.74-5.42,74.54ZM382.17,601.61c.07-5.8-4.49-7.55-9.03-7.59-3.54-.03-6.92.89-8.72,3.79-1.43,2.3-1.3,6.49.52,8.86,2.96,3.87,11.35,3.74,15.41,1.05,1.19-.79,1.79-3.97,1.81-6.11Z"/>
        <path class="cls-1" d="M605.54,577.73l.44,16.57,69.86.24,1.65,2-30.91,12.52-40.8-.38-.17,21.39,1.08,10.43-7.51,4.39-9-5.14.79-2.68-.37-28.29-39.51-.15h-.69s-31.48-12.75-31.48-12.75l3.37-1.3,68.11-.36.43-16.86c4.67.69,10.08.95,14.72.37Z"/>
        <path class="cls-2" d="M785.91,594.44c3.85.83,5.23,5.18,4.2,9.77l-4.27,4.91-9.96.43c-3.99.17-7.71-2.15-8.51-5.39-.94-3.81.36-8.79,4.96-9.59,2.2-.38,5.79-.38,7.95-.31l5.64.18Z"/>
        <path class="cls-2" d="M866.53,594.25c.93,2.24,3.03,5.59,2.71,8.09-.26,2.02-2.62,4.91-4.08,6.82l-13.56-.46c-2.31-.08-4.7-4.99-5.11-7-.3-1.45-.11-4.16.73-4.82s2.99-2.05,4.12-2.09l15.18-.54Z"/>
        <path class="cls-2" d="M347.42,594.63l3.97,5.77-1.94-.24-1.38,6.27-5.79,2.69-11.15.02c-2.73-2.45-5.37-6.7-3.3-10.41l2.35-4.58,17.23.48Z"/>
        <path class="cls-2" d="M421.97,609.38l-8.32-.48c2.54-4.37,2.88-8.82.51-12.95l3.94-1.84,7.61.4c4.91.26,5.97,6.08,5.06,9.58-1.09,4.19-4.83,5.52-8.8,5.28Z"/>
        <path class="cls-4" d="M330.19,594.16l-2.35,4.58c-2.07,3.71.57,7.95,3.3,10.41h-9.6s-3.39-3.44-3.39-3.44l-.13-4.32c-.06-1.95,1.3-6.67,3.39-6.77l8.79-.46Z"/>
        <path class="cls-1" d="M414.17,595.95c2.37,4.12,2.02,8.58-.51,12.95-2.36-.14-6.3.62-8.25-.33.35-1.66.98-5.17,1.82-6.46l4.94-7.19,2.01,1.04Z"/>
        <path class="cls-4" d="M785.85,609.11l4.27-4.91c1.03-4.59-.35-8.94-4.2-9.77,3.83.12,7.7-.28,9.74,2.67s1.47,7.19-.37,9.58c-2.35,3.05-5.96,2.27-9.43,2.42Z"/>
        <path class="cls-4" d="M412.15,594.91l-4.94,7.19c-.83,1.29-1.47,4.8-1.82,6.46-4.09-2-4.96-7.2-3.13-10.96s6.34-4.52,9.88-2.69Z"/>
        <path class="cls-4" d="M865.16,609.16c1.46-1.91,3.82-4.79,4.08-6.82.32-2.51-1.78-5.86-2.71-8.09,3.05-.11,7.04,3.82,7.39,6.64.74,5.92-4.27,8.42-8.77,8.27Z"/>
        <path class="cls-1" d="M351.4,600.41l6.27,7.58c-3.63,1.32-7.68,1.09-9.59-1.56l1.38-6.27,1.94.24Z"/>
        <path class="cls-2" d="M383.61,606.45l-.37-10.12c2.18.12,4.23,2.33,4.33,4.19.17,2.98-1.23,5.18-3.96,5.94Z"/>
        <path class="cls-3" d="M734.21,594.01c-2.56-.2-5.96,2.97-6.53,5.1-.71,2.66.16,6.6,2.56,8.84-5.35,13.68-17.9,23.84-30.23,26.97-16.79,4.26-31.08-.44-42.94-11.12-4.54-.76-10.31-1.17-12.94-5.86-1.65-2.94.06-6.77,2.43-8.89l30.91-12.52,58.12-22.04c3.63-1.37,6.88-1.58,9.39,1.28,2.24,2.54,2.76,7.02-.11,10.14-4.07,4.41-10.09,3.25-10.66,8.09Z"/>
        <path class="cls-3" d="M590.17,639.75l9,5.14,7.51-4.39c11.43-6.67,25.38-6.31,36.53.36,16.22,9.71,22.67,29.95,13.34,46.41-5.68,3.36-12.77,3.91-19.37,3.81l4.99-7.1c4.43-6.3,5.16-13.87,1.84-20.94-2.63-5.6-7.91-10.56-15.21-11.66-9.03-1.35-18.02,1.99-23.89,8.87-1.98,2.32-6.48,3.92-8.68,2l-5.24-4.55c-10.65-9.25-27.33-9-35.02,1.88-7.47,10.56-3.87,20.61,4.54,31.48-6.67-.15-13.61-1.22-19.25-4.27-9.38-16.76-2.04-37.94,15-46.75,10.63-5.5,23.62-6.19,33.91-.31Z"/>
        <path class="cls-1" d="M604.9,660.27c1.41,11.74.42,23.38-.53,35.73l-4.22,54.96-1.56,27.18-7.26-89.35c-.17-2.08-.27-5.62-.92-7.47l.57-23.6,5.24,4.55c2.2,1.91,6.7.32,8.68-2Z"/>
        <path class="cls-3" d="M590.41,681.32c.65,1.85.75,5.38.92,7.47-2.18,2.2-6.79,3.77-9.29,1.44l-14.06-13.08c-2.46-2.29-1.5-7.38.44-9.35,7.04-7.19,18.63,3.84,22,13.53Z"/>
        <path class="cls-3" d="M614.69,690.75c-1.32.96-5.46.29-6.69-.89-4.69-4.5,2.36-17.6,12.55-23.49,3.04-1.76,7.05-.81,8.88,1.11,7.01,7.4-4.79,16.07-14.73,23.26Z"/>
        <path class="cls-2" d="M734.21,594.01l10.23.82c4.45.36,5.26,6.75,3.91,9.81-3.18,7.21-16.07,5.24-18.11,3.32-2.4-2.25-3.27-6.18-2.56-8.84.57-2.13,3.98-5.3,6.53-5.1Z"/>
        <path class="cls-2" d="M464.6,594.25c2.2-.03,5.03,3.59,5.52,5.6s-.51,6.98-2.4,8.03c-4.19,2.3-10.54,2.39-15.07.65-2.71-1.04-3.77-5.33-3.57-7.9.17-2.13,2.64-6.18,5.06-6.22l10.46-.16Z"/>
        <path class="cls-3" d="M657.07,447.34c0,32.06-25.99,58.05-58.05,58.05s-58.05-25.99-58.05-58.05,25.99-58.05,58.05-58.05,58.05,25.99,58.05,58.05ZM624.11,447.64c0-13.89-11.26-25.15-25.15-25.15s-25.15,11.26-25.15,25.15,11.26,25.15,25.15,25.15,25.15-11.26,25.15-25.15Z"/>
        <path class="cls-2" d="M382.17,601.61c-.02,2.14-.63,5.33-1.81,6.11-4.05,2.69-12.44,2.82-15.41-1.05-1.82-2.37-1.95-6.56-.52-8.86,1.8-2.9,5.18-3.82,8.72-3.79,4.54.04,9.09,1.79,9.03,7.59Z"/>
        <circle class="cls-4" cx="598.96" cy="447.64" r="25.15"/>
        <g>
          <path class="cls-3" d="M515.27,594.64c-2.31,2.44-4.02,5.72-3.19,8.71.92,3.32,4.34,5.44,8.09,5.42l30.22-.13h.69c1.31,1.01,3.33,3.32,3.55,4.92.73,5.32-5.7,9.77-13.52,10.32-11.95,10.21-25.94,15.3-42.23,11.36-13.11-3.17-25.78-13.34-31.16-27.36,1.9-1.04,2.89-6.02,2.4-8.03s-3.32-5.63-5.52-5.6c-.33-1.21-1.86-3.15-2.84-3.63l-7.6-3.69c-3.04-1.48-3.51-6.83-2.31-9.52.94-2.1,4.82-5.02,7.81-3.88l55.6,21.11Z"/>
          <path class="cls-2" d="M518.91,595.88l31.48,12.76-30.22.13c-3.75.02-7.16-2.1-8.09-5.42-.83-2.99.88-6.27,3.19-8.71l3.64,1.24Z"/>
        </g>
      </g>
      <g>
        <path class="cls-2" d="M395.7,1028.97c5.57,5.53,2.63,14.93-1.86,19.13-5.05,4.72-14.17,6.55-19.81,1.01l-36.77-36.09c-3.26-3.2-6.29-6.01-4.01-11.55l-12.39-11.49c-28.13,21.87-66.84,22.21-94.65.69-27.51-21.28-37.41-59.33-22.94-91.47,10.02-22.27,29.86-37.74,51.38-42.96,26.11-6.33,51.45.72,70.17,17.82,28.9,26.4,33.27,68.96,10.75,100.61l11.03,11.19,7.21,1.57,41.9,41.55ZM333.05,930.26c0-33.02-26.76-59.78-59.78-59.78s-59.78,26.76-59.78,59.78,26.76,59.78,59.78,59.78,59.78-26.76,59.78-59.78Z"/>
        <path class="cls-4" d="M333.05,930.26c0,33.02-26.76,59.78-59.78,59.78s-59.78-26.76-59.78-59.78,26.76-59.78,59.78-59.78,59.78,26.76,59.78,59.78ZM275.59,899.99c5.1.18,8.03-2.85,8.41-6.65.32-3.2-1.81-7.81-5.99-8.29-25.15-2.91-48.26,14.58-50.99,39.9-.54,5.03,4.57,8.01,8.13,7.54,4.71-.62,6.67-3.78,7.45-8.28,2.68-15.46,17.11-24.77,32.98-24.21Z"/>
        <path class="cls-2" d="M275.59,899.99c-15.87-.56-30.3,8.75-32.98,24.21-.78,4.5-2.74,7.66-7.45,8.28-3.56.47-8.67-2.51-8.13-7.54,2.72-25.32,25.83-42.81,50.99-39.9,4.18.48,6.31,5.09,5.99,8.29-.38,3.8-3.31,6.83-8.41,6.65Z"/>
      </g>
    </g>
  </g>
</svg>